<?xml version="1.0" encoding="UTF-8" standalone="no"?>
<svg
   version="1.1"
   width="1234"
   height="379"
   id="svg31"
   sodipodi:docname="logo-rssh-white.svg"
   inkscape:version="1.4.2 (ebf0e940, 2025-05-08)"
   xmlns:inkscape="http://www.inkscape.org/namespaces/inkscape"
   xmlns:sodipodi="http://sodipodi.sourceforge.net/DTD/sodipodi-0.dtd"
   xmlns="http://www.w3.org/2000/svg"
   xmlns:svg="http://www.w3.org/2000/svg">
  <defs
     id="defs31" />
  <sodipodi:namedview
     id="namedview31"
     pagecolor="#ffffff"
     bordercolor="#000000"
     borderopacity="0.25"
     inkscape:showpageshadow="2"
     inkscape:pageopacity="0.0"
     inkscape:pagecheckerboard="0"
     inkscape:deskcolor="#d1d1d1"
     showguides="true"
     inkscape:zoom="0.52084715"
     inkscape:cx="546.22551"
     inkscape:cy="135.35641"
     inkscape:window-width="1472"
     inkscape:window-height="894"
     inkscape:window-x="0"
     inkscape:window-y="34"
     inkscape:window-maximized="1"
     inkscape:current-layer="svg31">
    <sodipodi:guide
       position="343.75391,181.10938"
       orientation="0,-1"
       id="guide31"
       inkscape:locked="false" />
  </sodipodi:namedview>
  <path
     d="M0 0 C4.06772938 3.02344677 4.94944629 6.3714388 6.03515625 11.125 C6.27566528 14.66221619 6.27566528 14.66221619 6.26220703 18.43725586 C6.26249908 19.13078156 6.26279114 19.82430725 6.26309204 20.53884888 C6.26171099 22.80597941 6.24620847 25.07277142 6.23046875 27.33984375 C6.22673425 28.92167481 6.22388934 30.5035082 6.22189331 32.08534241 C6.21429126 36.22981253 6.19467258 40.3741404 6.17248535 44.51855469 C6.15195272 48.75518876 6.14287579 52.99184603 6.1328125 57.22851562 C6.11142314 65.52740872 6.07732905 73.82618661 6.03515625 82.125 C6.69523682 82.0935791 7.35531738 82.0621582 8.03540039 82.02978516 C11.05579701 81.90427731 14.07564423 81.82678433 17.09765625 81.75 C18.13599609 81.69972656 19.17433594 81.64945312 20.24414062 81.59765625 C25.47398682 81.49804013 29.07937458 81.53984368 33.21875 84.9609375 C36.23959341 87.9152425 36.96930564 90.23601672 37.28515625 94.5 C37.01165589 98.46575524 36.51665072 100.06449016 34.03515625 103.125 C26.54889429 109.39256816 17.13898726 108.26625802 7.87890625 108.22265625 C6.73603149 108.2212413 5.59315674 108.21982635 4.41564941 108.21836853 C0.788791 108.21280025 -2.8380042 108.20025362 -6.46484375 108.1875 C-8.93359285 108.1824809 -11.40234293 108.17791871 -13.87109375 108.17382812 C-19.90238731 108.1636949 -25.93354531 108.14411327 -31.96484375 108.125 C-31.96484375 117.365 -31.96484375 126.605 -31.96484375 136.125 C-40.9722372 137.25092418 -40.9722372 137.25092418 -45.44360352 137.28613281 C-46.44146378 137.29574036 -47.43932404 137.3053479 -48.46742249 137.31524658 C-49.51973557 137.31949646 -50.57204865 137.32374634 -51.65625 137.328125 C-53.31236549 137.33667511 -53.31236549 137.33667511 -55.00193787 137.34539795 C-57.32574517 137.35480387 -59.64956555 137.36136429 -61.97338867 137.36523438 C-65.51960363 137.37497873 -69.06524791 137.40606007 -72.61132812 137.4375 C-74.87629867 137.44402744 -77.14127332 137.44927892 -79.40625 137.453125 C-80.46058731 137.4654718 -81.51492462 137.4778186 -82.60121155 137.49053955 C-89.72265739 137.46905369 -94.86059366 136.83126931 -100.40234375 132 C-102.5860699 127.98194388 -102.64087692 124.6047379 -101.96484375 120.125 C-100.35182245 116.415051 -98.45271609 114.17668961 -94.96484375 112.125 C-91.26521229 111.18880424 -87.81531132 111.00781812 -84.0078125 111.02734375 C-83.00516357 111.02984131 -82.00251465 111.03233887 -80.96948242 111.03491211 C-79.70982666 111.04401611 -78.4501709 111.05312012 -77.15234375 111.0625 C-71.11953125 111.0934375 -71.11953125 111.0934375 -64.96484375 111.125 C-64.96484375 101.885 -64.96484375 92.645 -64.96484375 83.125 C-61.33251273 81.91422299 -58.01362388 82.00055836 -54.234375 82.02734375 C-53.10874397 82.02946617 -53.10874397 82.02946617 -51.96037292 82.03163147 C-49.56598915 82.0372244 -47.17169922 82.04977556 -44.77734375 82.0625 C-43.15299614 82.06751592 -41.52864707 82.07207866 -39.90429688 82.07617188 C-35.92444306 82.08719152 -31.94465931 82.10445127 -27.96484375 82.125 C-27.9748365 80.79195328 -27.9748365 80.79195328 -27.98503113 79.43197632 C-28.0452103 71.04567218 -28.09085277 62.65944085 -28.12028027 54.2729702 C-28.13591799 49.96167137 -28.15712151 45.65055138 -28.19116211 41.33935547 C-28.22382334 37.17667515 -28.24171101 33.01416655 -28.24947548 28.85136795 C-28.25500687 27.26538008 -28.26580841 25.67940131 -28.28203392 24.09348679 C-28.30389866 21.86729573 -28.30680698 19.64180897 -28.30541992 17.41552734 C-28.31541267 15.51690445 -28.31541267 15.51690445 -28.3256073 13.57992554 C-27.85281582 9.05214174 -26.45120554 5.66641223 -23.27734375 2.375 C-16.86765514 -1.08969654 -6.88332287 -3.06533662 0 0 Z "
     fill="#FFFFFF"
     transform="translate(198.96484375,75.875)"
     id="path1" />
  <path
     d="M0 0 C16.65517189 1.96178707 32.34586181 11.47662735 45 22 C45.79148438 22.64453125 46.58296875 23.2890625 47.3984375 23.953125 C68.36917271 41.81463448 80.96171914 67.7994666 84 95 C86.06213216 123.85556292 79.84684397 153.38090809 61.25 176.25 C59.84367617 177.84252698 58.4283248 179.42717542 57 181 C56.0408253 182.20766556 55.08240659 183.41593224 54.125 184.625 C36.52379541 204.82310363 9.11962802 215.79615639 -17 218 C-48.26802233 220.02531508 -82.27032908 211.76673703 -106.375 191.125 C-127.07900895 172.77122273 -142.7068259 147.11630853 -145 119 C-145.192954 112.99382123 -145.09106805 107.01049098 -145 101 C-139.06 101 -133.12 101 -127 101 C-127.04125 102.299375 -127.0825 103.59875 -127.125 104.9375 C-127.04275666 134.05164159 -116.58682538 161.42787211 -96.1875 182.3125 C-79.6970411 198.47003184 -56.73664655 210.39282684 -33.375 210.5 C-6.94742035 210.06816901 16.24295799 200.07455511 36 183 C36.75925781 182.34386719 37.51851562 181.68773437 38.30078125 181.01171875 C57.07744012 163.43917428 68.00168383 136.82375087 69.25390625 111.44921875 C70.23512664 81.31173548 59.45153183 54.48053429 38.92578125 32.54223633 C27.79227749 21.00510653 14.78711821 13.86821248 0 8 C0 5.36 0 2.72 0 0 Z "
     fill="#FFFFFF"
     transform="translate(208,87)"
     id="path2" />
  <path
     d="M0 0 C1.14461197 -0.00953201 2.28922394 -0.01906403 3.46852112 -0.02888489 C4.69054733 -0.02797348 5.91257355 -0.02706207 7.17163086 -0.02612305 C9.07216469 -0.03255074 9.07216469 -0.03255074 11.01109314 -0.03910828 C13.68494621 -0.04484229 16.35841201 -0.04629762 19.03222656 -0.04101562 C22.4508301 -0.03521085 25.86889362 -0.05218821 29.28740788 -0.0753603 C32.56131142 -0.09366408 35.83518536 -0.08991214 39.10913086 -0.08862305 C40.94520653 -0.10243767 40.94520653 -0.10243767 42.81837463 -0.11653137 C44.53056435 -0.10718819 44.53056435 -0.10718819 46.27734375 -0.09765625 C47.27850723 -0.09828568 48.27967072 -0.0989151 49.31117249 -0.0995636 C53.9314156 0.52624876 56.43294973 2.51235834 59.38647461 6.0246582 C61.37462996 9.85369814 61.61621305 12.01421333 61.07397461 16.2746582 C59.24451575 20.41501245 56.96339401 22.97275693 53.07397461 25.2746582 C45.89533871 27.41015157 38.56210554 27.37646436 31.14428711 27.3215332 C30.26909424 27.31814941 29.39390137 27.31476563 28.4921875 27.3112793 C26.35276632 27.30251716 24.2133652 27.28906847 22.07397461 27.2746582 C22.08968506 28.53536133 22.10539551 29.79606445 22.12158203 31.0949707 C22.17612586 35.79884381 22.21041337 40.50268927 22.23876953 45.20678711 C22.2538006 47.23775951 22.27423107 49.26869975 22.30029297 51.29956055 C22.33692693 54.22884079 22.35375812 57.15768964 22.36694336 60.0871582 C22.38242722 60.98644043 22.39791107 61.88572266 22.41386414 62.81225586 C22.4155355 69.15779026 21.85473037 75.44219417 17.18334961 80.20043945 C11.14387036 83.27610018 3.73995383 83.8395717 -2.92602539 83.2746582 C-6.63797536 81.62490266 -8.77927938 79.70945181 -10.92602539 76.2746582 C-12.08638044 72.79359306 -12.04605243 70.08993491 -12.03955078 66.41650391 C-12.03969681 65.72356232 -12.03984283 65.03062073 -12.03999329 64.31668091 C-12.03929702 62.02790184 -12.03151799 59.7392043 -12.02368164 57.45043945 C-12.02181645 55.86289006 -12.02039302 54.27534009 -12.01939392 52.68778992 C-12.01557673 48.510431 -12.00575325 44.33310689 -11.99468994 40.15576172 C-11.98445867 35.89266429 -11.97989262 31.62956124 -11.97485352 27.36645508 C-11.96413028 19.00250682 -11.94706342 10.63858684 -11.92602539 2.2746582 C-7.81105867 0.73667044 -4.38691008 0.02017269 0 0 Z "
     fill="#FFFFFF"
     transform="translate(182.926025390625,185.725341796875)"
     id="path4" />
  <path
     d="M0 0 C1.73443359 0.01353516 1.73443359 0.01353516 3.50390625 0.02734375 C6.33615647 0.05075078 9.16796619 0.08354005 12 0.125 C12.09286256 7.8442796 12.16384714 15.56350095 12.20724869 23.28321266 C12.22808423 26.86820901 12.25632651 30.45282194 12.30175781 34.03759766 C12.34536192 37.5000419 12.36916743 40.96211841 12.37950897 44.42481613 C12.39044821 46.38242482 12.42165128 48.33988648 12.45318604 50.29727173 C12.45601757 61.55119787 12.45601757 61.55119787 8 66.125 C1.15078512 69.60968827 -6.96968617 71.37073337 -14.4375 69.0625 C-17.52400481 66.72880124 -19.58416114 64.71976784 -21 61.125 C-21.55480935 56.62465239 -21.46484576 52.16111171 -21.390625 47.6328125 C-21.38496521 46.33173553 -21.37930542 45.03065857 -21.37347412 43.69015503 C-21.35827244 40.24740319 -21.31903993 36.80533682 -21.2746582 33.362854 C-21.23358604 29.84355947 -21.21543779 26.32415312 -21.1953125 22.8046875 C-21.15253873 15.91117848 -21.08435522 9.01812224 -21 2.125 C-13.93991275 -0.0726252 -7.35642856 -0.1095459 0 0 Z "
     fill="#FFFFFF"
     transform="translate(155,213.875)"
     id="path11" />
  <path
     d="M0 0 C1.10131256 0.00141495 2.20262512 0.0028299 3.33731079 0.00428772 C6.84208942 0.00986873 10.3468033 0.02241779 13.8515625 0.03515625 C16.23307199 0.0401737 18.61458249 0.04473618 20.99609375 0.04882812 C26.82296146 0.05897946 32.64968981 0.07855871 38.4765625 0.09765625 C38.4765625 8.34765625 38.4765625 16.59765625 38.4765625 25.09765625 C33.79872419 26.65693569 31.52630997 27.34950473 26.91772461 27.37231445 C25.32093117 27.38661247 25.32093117 27.38661247 23.69187927 27.40119934 C22.55734818 27.40028793 21.42281708 27.39937653 20.25390625 27.3984375 C18.48654869 27.40486519 18.48654869 27.40486519 16.68348694 27.41142273 C14.19809613 27.41715439 11.71268854 27.41767489 9.22729492 27.41333008 C5.42402652 27.41016454 1.62153201 27.43366431 -2.18164062 27.45898438 C-4.59895735 27.4612569 -7.01627617 27.46196108 -9.43359375 27.4609375 C-11.13842674 27.47475212 -11.13842674 27.47475212 -12.87770081 27.48884583 C-14.46976601 27.47950264 -14.46976601 27.47950264 -16.09399414 27.4699707 C-17.02409805 27.47060013 -17.95420197 27.47122955 -18.91249084 27.47187805 C-23.11333265 26.86977973 -25.76528213 24.79433956 -28.8359375 21.97265625 C-31.20293923 17.93998664 -31.2884983 14.66386124 -30.5234375 10.09765625 C-29.04781356 6.63314787 -27.89822325 4.76287516 -24.46484375 3.1015625 C-16.35852206 0.24452838 -8.51432763 -0.04135127 0 0 Z "
     fill="#FFFFFF"
     transform="translate(94.5234375,156.90234375)"
     id="path17" />
  <path
     d="M0 0 C0 2.64 0 5.28 0 8 C-1.08796875 8.23074219 -2.1759375 8.46148437 -3.296875 8.69921875 C-12.28407327 10.66545715 -20.70735052 12.90616038 -29 17 C-29.61198242 17.3000293 -30.22396484 17.60005859 -30.85449219 17.90917969 C-41.45420645 23.20120066 -49.65737465 29.64557462 -58 38 C-58.67417969 38.60328125 -59.34835938 39.2065625 -60.04296875 39.828125 C-69.12517138 48.05822166 -74.81485769 60.0979059 -80 71 C-86.27 71 -92.54 71 -99 71 C-90.02806902 44.08420705 -69.67784404 23.23911073 -44.60791016 10.67016602 C-30.82702482 4.0339489 -15.44697165 -0.7184638 0 0 Z "
     fill="#FFFFFF"
     transform="translate(169,83)"
     id="path21" />
  <path
     d="M0 0 C3.51779845 3.45600152 4.84545885 4.93981447 5.56762695 9.89404297 C5.56684518 11.34366557 5.53917396 12.79345833 5.48828125 14.2421875 C5.48120651 15.01055939 5.47413177 15.77893127 5.46684265 16.57058716 C5.43902296 19.00641417 5.37631602 21.43987704 5.3125 23.875 C5.2874007 25.53382078 5.26459039 27.19267788 5.24414062 28.8515625 C5.18923818 32.90194198 5.10305907 36.95057127 5 41 C2.02640551 42.48679725 -0.66299179 42.11112605 -3.9765625 42.09765625 C-4.66181 42.0962413 -5.3470575 42.09482635 -6.05307007 42.09336853 C-8.24375761 42.08776675 -10.4343433 42.07521406 -12.625 42.0625 C-14.10937352 42.05748522 -15.59374865 42.05292228 -17.078125 42.04882812 C-20.71878315 42.03779677 -24.35938164 42.02053099 -28 42 C-28.07436755 37.3918813 -28.12870394 32.78411486 -28.16479492 28.17553711 C-28.17984622 26.60906893 -28.20029207 25.04264264 -28.22631836 23.47631836 C-28.26286433 21.21978394 -28.27976261 18.96380847 -28.29296875 16.70703125 C-28.30845261 16.01100296 -28.32393646 15.31497467 -28.33988953 14.59785461 C-28.34183416 8.93105766 -26.74851413 5.91243733 -23 1.8125 C-16.47716448 -2.12837979 -6.9921535 -3.69396789 0 0 Z "
     fill="#FFFFFF"
     transform="translate(162,113)"
     id="path26" />
  <path
     d="M0 0 C2.4375 1.625 2.4375 1.625 4 4 C4.60605429 7.63632575 4.47161336 9.28314769 2.4375 12.375 C-0.91283535 14.6085569 -3.0481433 14.49398209 -7 14 C-9.4375 13 -9.4375 13 -11 11 C-11.56111226 8.22336201 -11.56111226 5.77663799 -11 3 C-8.06403859 -0.7580306 -4.50318499 -0.56289812 0 0 Z "
     fill="#FFFFFF"
     transform="translate(788,106)"
     id="path31"
     style="fill:#808080" />
  <text
     xml:space="preserve"
     style="font-weight:bold;font-size:85.3333px;line-height:1.4;font-family:Poppins;-inkscape-font-specification:'Poppins Bold';text-align:start;letter-spacing:0.5px;writing-mode:lr-tb;direction:ltr;text-anchor:start;fill:#ffffff;stroke-width:3.77953;stroke-linecap:square;stroke-linejoin:bevel"
     x="307.20834"
     y="169.99997"
     id="text46"><tspan
       id="tspan46"
       x="307.20834"
       y="169.99997"
       style="font-style:normal;font-variant:normal;font-weight:600;font-stretch:normal;font-size:85.3333px;font-family:'Century Gothic';-inkscape-font-specification:'Century Gothic Semi-Bold';letter-spacing:0.5px;fill:#ffffff"
       sodipodi:role="line">Rumah Sakit</tspan></text>
  <text
     xml:space="preserve"
     style="font-style:normal;font-variant:normal;font-weight:600;font-stretch:normal;font-size:106.667px;line-height:1.4;font-family:'Century Gothic';-inkscape-font-specification:'Century Gothic Semi-Bold';text-align:start;letter-spacing:-2.2px;writing-mode:lr-tb;direction:ltr;text-anchor:start;fill:#ffffff;stroke-width:3.77953;stroke-linecap:square;stroke-linejoin:bevel"
     x="307.86456"
     y="273.36594"
     id="text47"><tspan
       sodipodi:role="line"
       id="tspan47"
       x="307.86456"
       y="273.36594"
       style="font-size:106.667px;letter-spacing:-2.2px;fill:#ffffff">SAMSOE HIDAJAT</tspan></text>
</svg>
