<?xml version="1.0" encoding="UTF-8" standalone="no"?>
<svg
   version="1.1"
   width="805"
   height="181"
   id="svg46"
   sodipodi:docname="logo-rssh.svg"
   inkscape:version="1.4.2 (ebf0e940, 2025-05-08)"
   xmlns:inkscape="http://www.inkscape.org/namespaces/inkscape"
   xmlns:sodipodi="http://sodipodi.sourceforge.net/DTD/sodipodi-0.dtd"
   xmlns="http://www.w3.org/2000/svg"
   xmlns:svg="http://www.w3.org/2000/svg">
  <defs
     id="defs46" />
  <sodipodi:namedview
     id="namedview46"
     pagecolor="#ffffff"
     bordercolor="#000000"
     borderopacity="0.25"
     inkscape:showpageshadow="2"
     inkscape:pageopacity="0.0"
     inkscape:pagecheckerboard="0"
     inkscape:deskcolor="#d1d1d1"
     showguides="true"
     inkscape:zoom="0.60078559"
     inkscape:cx="337.05868"
     inkscape:cy="252.16983"
     inkscape:window-width="1472"
     inkscape:window-height="894"
     inkscape:window-x="0"
     inkscape:window-y="34"
     inkscape:window-maximized="1"
     inkscape:current-layer="svg46">
    <sodipodi:guide
       position="201.8125,99.8672"
       orientation="0,-1"
       id="guide46"
       inkscape:locked="false" />
  </sodipodi:namedview>
  <path
     d="M0 0 C2.68607951 1.79071968 3.62348192 2.80145467 4.57884216 5.84259033 C5.03998204 8.20481073 5.11999515 10.36180445 5.11352539 12.76855469 C5.11341209 14.17956451 5.11341209 14.17956451 5.11329651 15.61907959 C5.10813522 16.62650208 5.10297394 17.63392456 5.09765625 18.671875 C5.0962413 19.70942932 5.09482635 20.74698364 5.09336853 21.815979 C5.08777447 25.12734876 5.07522303 28.43865071 5.0625 31.75 C5.05748423 33.99609277 5.05292146 36.24218661 5.04882812 38.48828125 C5.03780699 43.9922106 5.02107474 49.49610046 5 55 C5.95261719 54.96519531 6.90523438 54.93039063 7.88671875 54.89453125 C9.14097656 54.86746094 10.39523438 54.84039062 11.6875 54.8125 C12.92886719 54.77769531 14.17023438 54.74289063 15.44921875 54.70703125 C19.22021735 55.01816975 21.00684747 55.7537626 24 58 C26.08606926 60.65499724 25.99879455 62.06750504 25.9375 65.5 C24.83417427 69.61908272 23.52601721 70.73973255 20 73 C20.54269531 73.17015625 21.08539063 73.3403125 21.64453125 73.515625 C24.87917128 74.61132289 27.44731115 75.49912573 30 77.8125 C31.3712961 80.81221021 31.46681152 82.73231936 31 86 C28.99891162 89.52191555 27.67221178 90.75873587 23.84375 92.1328125 C19.7789397 93.04987336 16.22255233 93.19862924 12.0625 93.125 C11.37865234 93.11597656 10.69480469 93.10695313 9.99023438 93.09765625 C8.32666713 93.07438958 6.66328369 93.03853167 5 93 C5.01571045 93.8470752 5.0314209 94.69415039 5.04760742 95.56689453 C5.0989557 98.73142204 5.13645672 101.89573608 5.16479492 105.06054688 C5.17981428 106.42617816 5.20023608 107.79176176 5.22631836 109.15722656 C5.26300137 111.12803905 5.27818551 113.09921408 5.29296875 115.0703125 C5.3086792 116.25383301 5.32438965 117.43735352 5.34057617 118.65673828 C4.95861292 122.40627572 3.94787744 124.7931755 2 128 C-1.95945995 130.50919264 -6.19488722 131.01319857 -10.8125 130.9375 C-14.42936525 129.8737161 -15.65462329 128.90086685 -18 126 C-18.48101807 123.58282471 -18.48101807 123.58282471 -18.45410156 120.86425781 C-18.45379944 119.84350159 -18.45349731 118.82274536 -18.45318604 117.77105713 C-18.42221832 116.12868073 -18.42221832 116.12868073 -18.390625 114.453125 C-18.38496521 113.3267865 -18.37930542 112.200448 -18.37347412 111.03997803 C-18.35108545 107.44288618 -18.30088213 103.84679074 -18.25 100.25 C-18.22993833 97.8112123 -18.21168698 95.37240899 -18.1953125 92.93359375 C-18.15121244 86.95538926 -18.08427463 80.97776581 -18 75 C-19.485 74.505 -19.485 74.505 -21 74 C-21.02683987 76.97922593 -21.04676037 79.95821295 -21.0625 82.9375 C-21.07506836 84.21270508 -21.07506836 84.21270508 -21.08789062 85.51367188 C-21.09272461 86.72700195 -21.09272461 86.72700195 -21.09765625 87.96484375 C-21.10551147 89.08814087 -21.10551147 89.08814087 -21.11352539 90.23413086 C-21.19341752 92.02667739 -21.19341752 92.02667739 -20 93 C-19.7068553 98.60871161 -19.68585332 104.22005378 -19.64990234 109.83569336 C-19.63337785 111.72807137 -19.60613424 113.62038787 -19.56787109 115.51245117 C-19.51294696 118.24170294 -19.49120148 120.9694878 -19.4765625 123.69921875 C-19.45389313 124.54006516 -19.43122375 125.38091156 -19.40786743 126.24723816 C-19.42283514 130.43367521 -19.69590555 133.17496639 -22.34521484 136.51879883 C-25.96860537 139.9052728 -28.63841687 140.18877873 -33.4375 140.3125 C-34.85869141 140.36857422 -34.85869141 140.36857422 -36.30859375 140.42578125 C-39 140 -39 140 -41.14379883 138.57202148 C-43.95526146 134.67635414 -43.49832952 131.10696895 -43.390625 126.421875 C-43.38496521 125.4953009 -43.37930542 124.56872681 -43.37347412 123.61407471 C-43.35110921 120.65885438 -43.30091262 117.70485295 -43.25 114.75 C-43.22993515 112.7448092 -43.21168435 110.73959936 -43.1953125 108.734375 C-43.151244 103.82244806 -43.08221555 98.91143058 -43 94 C-44.95292969 93.97873047 -44.95292969 93.97873047 -46.9453125 93.95703125 C-48.67190966 93.91011285 -50.39847107 93.86186556 -52.125 93.8125 C-53.40890625 93.80379883 -53.40890625 93.80379883 -54.71875 93.79492188 C-60.85753649 93.58242542 -63.75561544 92.49826385 -68 88 C-69.09194686 85.17378461 -68.83562573 82.89255061 -68 80 C-65.86635285 77.13481669 -65.17165505 76.28414385 -62 75 C-59.76315338 74.7077649 -57.51362316 74.50455034 -55.26171875 74.37109375 C-54.08955811 74.29689209 -52.91739746 74.22269043 -51.7097168 74.14624023 C-50.81551025 74.09798096 -49.92130371 74.04972168 -49 74 C-50.00377686 74.01571045 -51.00755371 74.0314209 -52.04174805 74.04760742 C-55.77831955 74.10205114 -59.51485621 74.13640226 -63.25170898 74.16479492 C-64.86667789 74.17984876 -66.48160613 74.20029648 -68.09643555 74.22631836 C-70.42246555 74.26285286 -72.74795341 74.27976015 -75.07421875 74.29296875 C-76.15107185 74.31619453 -76.15107185 74.31619453 -77.24967957 74.33988953 C-82.79278309 74.34173574 -85.93433247 72.99681195 -89.875 69.1875 C-91.47535903 66.07569078 -90.96539483 64.30992513 -90 61 C-88.48955141 57.97910281 -87.41761605 57.16803353 -84.27319336 55.90283203 C-78.25031734 54.3008686 -71.93542033 54.75536696 -65.75390625 54.8046875 C-64.37385769 54.80842305 -62.99380645 54.81126746 -61.61375427 54.81326294 C-58.00192798 54.82085676 -54.39026551 54.84046806 -50.77850342 54.8626709 C-47.08478002 54.88322154 -43.39102986 54.89228427 -39.69726562 54.90234375 C-32.4647695 54.92371852 -25.23240781 54.9578023 -18 55 C-18.01110306 54.39722733 -18.02220612 53.79445465 -18.03364563 53.17341614 C-18.14432556 46.89562814 -18.21970304 40.61811757 -18.2746582 34.33959961 C-18.29979125 31.99703716 -18.33390308 29.65455305 -18.37719727 27.31225586 C-18.43789928 23.94365101 -18.46622251 20.57608351 -18.48828125 17.20703125 C-18.51408768 16.16102249 -18.5398941 15.11501373 -18.56648254 14.03730774 C-18.56929181 6.74262738 -18.56929181 6.74262738 -15.59448242 2.86206055 C-10.60435093 -0.71935781 -6.03025942 -0.65119665 0 0 Z "
     fill="#348740"
     transform="translate(121,16)"
     id="path1" />
  <path
     d="M0 0 C14.94151261 1.5727908 29.0229776 11.28893241 39 22 C45.41141239 29.95864598 50.30549678 38.4795494 54 48 C54.3403125 48.87140625 54.680625 49.7428125 55.03125 50.640625 C60.70607691 68.6109102 57.7736804 89.65381117 49.75 106.3125 C46.47755992 112.50152846 42.68802816 117.81420824 38 123 C37.37351563 123.70769531 36.74703125 124.41539062 36.1015625 125.14453125 C24.49229404 137.5356484 7.13360431 145.80226703 -9.85546875 146.43359375 C-12.29936367 146.45738987 -14.7435754 146.45802236 -17.1875 146.4375 C-18.47035889 146.42847656 -19.75321777 146.41945312 -21.07495117 146.41015625 C-43.0880275 146.00862569 -61.49357391 138.38668827 -77.203125 122.81640625 C-89.4685591 109.68490142 -97.27278649 92.78831445 -97.0625 74.6875 C-97.05798828 73.94693359 -97.05347656 73.20636719 -97.04882812 72.44335938 C-97.03712175 70.62887101 -97.01918898 68.81442466 -97 67 C-93.04 67 -89.08 67 -85 67 C-84.84144531 68.50949219 -84.68289062 70.01898438 -84.51953125 71.57421875 C-83.26407131 82.7318067 -82.00883479 92.83922085 -77 103 C-76.56945312 103.93585938 -76.13890625 104.87171875 -75.6953125 105.8359375 C-67.23305373 122.90388315 -52.31304645 133.03113435 -34.703125 139.14453125 C-17.42419182 143.13618354 -0.01047423 138.91246907 15 130 C18.17705971 127.84555639 21.11359794 125.5283987 24 123 C24.60328125 122.47921875 25.2065625 121.9584375 25.828125 121.421875 C38.13711706 110.0000175 45.46818813 93.55983698 46.21875 76.87109375 C46.78002029 57.29810629 41.7236795 38.54090066 28 24 C19.69721345 15.62696991 10.55101537 10.08011851 0 5 C0 3.35 0 1.7 0 0 Z "
     fill="#0F69A5"
     transform="translate(127,24)"
     id="path2" />
  <path
     d="M0 0 C0.77870956 -0.00570007 1.55741913 -0.01140015 2.35972595 -0.01727295 C3.99769755 -0.02667425 5.63568764 -0.03323743 7.27368164 -0.03710938 C9.7732822 -0.04685916 12.27207476 -0.07794515 14.77148438 -0.109375 C16.36848474 -0.11590207 17.96549093 -0.1211537 19.5625 -0.125 C20.67674095 -0.1435202 20.67674095 -0.1435202 21.81349182 -0.16241455 C26.3022281 -0.14319761 29.16519549 0.40601037 32.71484375 3.203125 C35.05653139 6.71565646 35.21108052 8.06781856 34.71484375 12.203125 C32.71375537 15.72504055 31.38705553 16.96186087 27.55859375 18.3359375 C23.49378345 19.25299836 19.93739608 19.40175424 15.77734375 19.328125 C15.09349609 19.31910156 14.40964844 19.31007813 13.70507812 19.30078125 C12.04151088 19.27751458 10.37812744 19.24165667 8.71484375 19.203125 C8.7305542 20.0502002 8.74626465 20.89727539 8.76245117 21.77001953 C8.81379945 24.93454704 8.85130047 28.09886108 8.87963867 31.26367188 C8.89465803 32.62930316 8.91507983 33.99488676 8.94116211 35.36035156 C8.97784512 37.33116405 8.99302926 39.30233908 9.0078125 41.2734375 C9.02352295 42.45695801 9.0392334 43.64047852 9.05541992 44.85986328 C8.67345667 48.60940072 7.66272119 50.9963005 5.71484375 54.203125 C1.7553838 56.71231764 -2.48004347 57.21632357 -7.09765625 57.140625 C-10.7145215 56.0768411 -11.93977954 55.10399185 -14.28515625 52.203125 C-14.76617432 49.78594971 -14.76617432 49.78594971 -14.73925781 47.06738281 C-14.73895569 46.04662659 -14.73865356 45.02587036 -14.73834229 43.97418213 C-14.71769714 42.87926453 -14.697052 41.78434692 -14.67578125 40.65625 C-14.67012146 39.5299115 -14.66446167 38.403573 -14.65863037 37.24310303 C-14.6362417 33.64601118 -14.58603838 30.04991574 -14.53515625 26.453125 C-14.51509458 24.0143373 -14.49684323 21.57553399 -14.48046875 19.13671875 C-14.43636869 13.15851426 -14.36943088 7.18089081 -14.28515625 1.203125 C-9.5096253 0.26558593 -4.85134109 0.02783143 0 0 Z "
     fill="#1275AF"
     transform="translate(117.28515625,89.796875)"
     id="path4" />
  <path
     d="M0 0 C2.68355748 1.78903832 3.62169698 2.7995224 4.57884216 5.83685303 C5.0448514 8.23036537 5.11994275 10.42175496 5.11352539 12.86035156 C5.11344986 13.82104553 5.11337433 14.7817395 5.11329651 15.77154541 C5.10813522 16.80084167 5.10297394 17.83013794 5.09765625 18.890625 C5.0962413 19.95037537 5.09482635 21.01012573 5.09336853 22.10198975 C5.08777382 25.48468862 5.07522225 28.86732115 5.0625 32.25 C5.05748432 34.54426988 5.05292153 36.83854079 5.04882812 39.1328125 C5.03780611 44.75523094 5.02107321 50.37761073 5 56 C-0.01608525 57.0176403 -4.78608306 57.11856434 -9.875 57.0625 C-10.65875 57.05798828 -11.4425 57.05347656 -12.25 57.04882812 C-14.16670014 57.03714093 -16.08336048 57.01920908 -18 57 C-18.12682581 49.82856131 -18.21436241 42.65741202 -18.2746582 35.48510742 C-18.29979496 33.04554436 -18.33390946 30.60605655 -18.37719727 28.16674805 C-18.43788229 24.65915354 -18.466219 21.1525551 -18.48828125 17.64453125 C-18.51408768 16.55477493 -18.5398941 15.46501862 -18.56648254 14.34223938 C-18.56929203 6.74909887 -18.56929203 6.74909887 -15.59448242 2.8347168 C-10.58911496 -0.70488389 -6.02389428 -0.65050929 0 0 Z "
     fill="#1994CB"
     transform="translate(121,16)"
     id="path8" />
  <path
     d="M0 0 C0.83595703 0.00451172 1.67191406 0.00902344 2.53320312 0.01367188 C4.58466649 0.02539452 6.63609273 0.04332797 8.6875 0.0625 C8.81143636 5.64916964 8.90199755 11.23503283 8.9621582 16.82275391 C8.98724604 18.72198431 9.02132468 20.6211187 9.06469727 22.52001953 C9.1256033 25.25577521 9.15376653 27.9902507 9.17578125 30.7265625 C9.20158768 31.57054596 9.2273941 32.41452942 9.25398254 33.28408813 C9.25596315 37.48165756 9.00198228 40.22946681 6.34448242 43.58349609 C2.71887344 46.96624291 0.04857204 47.2512919 -4.75 47.375 C-6.17119141 47.43107422 -6.17119141 47.43107422 -7.62109375 47.48828125 C-10.3125 47.0625 -10.3125 47.0625 -12.45629883 45.63452148 C-15.26776146 41.73885414 -14.81082952 38.16946895 -14.703125 33.484375 C-14.69746521 32.5578009 -14.69180542 31.63122681 -14.68597412 30.67657471 C-14.66360921 27.72135438 -14.61341262 24.76735295 -14.5625 21.8125 C-14.54243515 19.8073092 -14.52418435 17.80209936 -14.5078125 15.796875 C-14.463744 10.88494806 -14.39471555 5.97393058 -14.3125 1.0625 C-9.54157044 -0.17152862 -4.88780554 -0.05015112 0 0 Z "
     fill="#188DC5"
     transform="translate(92.3125,108.9375)"
     id="path13" />
  <path
     d="M0 0 C0.81134903 0.0028299 1.62269806 0.00565979 2.45863342 0.00857544 C5.02596378 0.01968587 7.59293303 0.04477279 10.16015625 0.0703125 C11.91080222 0.08035414 13.66145371 0.08947791 15.41210938 0.09765625 C19.68253952 0.11788567 23.95219819 0.15705056 28.22265625 0.1953125 C27.89265625 6.1353125 27.56265625 12.0753125 27.22265625 18.1953125 C22.85479915 19.06888392 18.88554272 19.37173032 14.47265625 19.3984375 C13.73692383 19.40413757 13.00119141 19.40983765 12.24316406 19.41571045 C10.69337384 19.4251213 9.14356397 19.43167879 7.59375 19.43554688 C5.23011465 19.44528178 2.86733902 19.4763525 0.50390625 19.5078125 C-1.00650529 19.51434085 -2.516923 19.51959198 -4.02734375 19.5234375 C-4.72956055 19.5357843 -5.43177734 19.5481311 -6.15527344 19.56085205 C-11.62501824 19.53613735 -14.76419081 18.14136035 -18.65234375 14.3828125 C-20.25270278 11.27100328 -19.74273858 9.50523763 -18.77734375 6.1953125 C-17.1707647 2.9821544 -16.12452237 2.31944495 -12.70874023 1.09814453 C-8.4590701 -0.03582151 -4.37457812 -0.05840254 0 0 Z "
     fill="#188FC6"
     transform="translate(49.77734375,70.8046875)"
     id="path18" />
  <path
     d="M0 0 C0 1.65 0 3.3 0 5 C-1.61455078 5.41958984 -1.61455078 5.41958984 -3.26171875 5.84765625 C-17.69757673 9.74591899 -29.35089874 15.19984765 -40 26 C-40.62390625 26.61359375 -41.2478125 27.2271875 -41.890625 27.859375 C-47.4915079 33.76300833 -51.15669636 40.89238392 -55 48 C-58.96 48 -62.92 48 -67 48 C-63.92321411 32.61607056 -51.45471692 19.41901124 -38.8125 10.8359375 C-28.78562603 4.58630067 -11.84103652 -3.94701217 0 0 Z "
     fill="#085492"
     transform="translate(102,22)"
     id="path22" />
  <path
     d="M0 0 C2.60825354 3.18786544 2.81526005 4.98201146 2.8203125 9.03515625 C2.82224609 10.50758789 2.82224609 10.50758789 2.82421875 12.00976562 C2.82035156 13.03779297 2.81648438 14.06582031 2.8125 15.125 C2.81830078 16.6728418 2.81830078 16.6728418 2.82421875 18.25195312 C2.82292969 19.23228516 2.82164063 20.21261719 2.8203125 21.22265625 C2.81918457 22.12636963 2.81805664 23.03008301 2.81689453 23.96118164 C2.6875 26.0625 2.6875 26.0625 1.6875 27.0625 C0.05277118 27.14950342 -1.58564055 27.16951063 -3.22265625 27.16015625 C-4.21201172 27.15693359 -5.20136719 27.15371094 -6.22070312 27.15039062 C-7.26162109 27.14201172 -8.30253906 27.13363281 -9.375 27.125 C-10.41978516 27.12048828 -11.46457031 27.11597656 -12.54101562 27.11132812 C-15.1315666 27.09949913 -17.72200559 27.08301689 -20.3125 27.0625 C-20.4871354 23.16723501 -20.59346492 19.2729781 -20.6875 15.375 C-20.73777344 14.27220703 -20.78804688 13.16941406 -20.83984375 12.03320312 C-20.98448142 4.05402503 -20.98448142 4.05402503 -19.05566406 1.20800781 C-13.60974771 -3.48349589 -5.72689209 -4.79820688 0 0 Z "
     fill="#1683BC"
     transform="translate(98.3125,42.9375)"
     id="path27" />
  <path
     d="M0 0 C2.64 0 5.28 0 8 0 C8.06469482 0.62865967 8.12938965 1.25731934 8.19604492 1.9050293 C10.04340875 19.48520367 10.04340875 19.48520367 16 36 C16.43054688 36.93585938 16.86109375 37.87171875 17.3046875 38.8359375 C25.74579185 55.86121577 40.42335279 65.6444915 57.828125 72.0390625 C59.87404697 72.72747021 61.93531526 73.37009618 64 74 C64 74.33 64 74.66 64 75 C43.34662641 73.38012756 27.01016985 62.72579715 13.80859375 47.29296875 C4.81752004 35.89391849 -0.24325498 21.71741922 -0.0625 7.1875 C-0.05798828 6.49462891 -0.05347656 5.80175781 -0.04882812 5.08789062 C-0.03713156 3.39188932 -0.01919924 1.69593297 0 0 Z "
     fill="#075291"
     transform="translate(34,91)"
     id="path29" />
  <path
     d="M0 0 C8.10891089 -0.62376238 8.10891089 -0.62376238 11.5 1.75 C13.90844069 5.36266104 14.12478144 8.58305372 14.11352539 12.86035156 C14.11344986 13.82104553 14.11337433 14.7817395 14.11329651 15.77154541 C14.10813522 16.80084167 14.10297394 17.83013794 14.09765625 18.890625 C14.0962413 19.95037537 14.09482635 21.01012573 14.09336853 22.10198975 C14.08777382 25.48468862 14.07522225 28.86732115 14.0625 32.25 C14.05748432 34.54426988 14.05292153 36.83854079 14.04882812 39.1328125 C14.03780611 44.75523094 14.02107321 50.37761073 14 56 C10.53078101 56.62741195 7.22203697 57.1247849 3.6953125 57.09765625 C2.57382813 57.09282227 2.57382813 57.09282227 1.4296875 57.08789062 C0.66914062 57.07951172 -0.09140625 57.07113281 -0.875 57.0625 C-1.65875 57.05798828 -2.4425 57.05347656 -3.25 57.04882812 C-5.16670014 57.03714093 -7.08336048 57.01920908 -9 57 C-8.67 56.01 -8.34 55.02 -8 54 C-7.67 54.33 -7.34 54.66 -7 55 C-4.64686445 55.07271741 -2.29166332 55.08370868 0.0625 55.0625 C1.35285156 55.05347656 2.64320312 55.04445312 3.97265625 55.03515625 C5.47119141 55.01775391 5.47119141 55.01775391 7 55 C7.00908051 47.95191493 6.97185576 40.90516726 6.90234375 33.85742188 C6.8841693 31.45969261 6.87661784 29.06185842 6.87988281 26.6640625 C6.88273558 23.21792195 6.84746269 19.77396374 6.8046875 16.328125 C6.81378143 15.25508118 6.82287537 14.18203735 6.83224487 13.07647705 C6.93514053 7.85526367 6.93514053 7.85526367 4.61090088 3.44665527 C2.79879326 2.19557362 2.79879326 2.19557362 0 1 C0 0.67 0 0.34 0 0 Z "
     fill="#095693"
     transform="translate(112,16)"
     id="path32" />
  <path
     d="M0 0 C0.79921875 0.00644531 1.5984375 0.01289062 2.421875 0.01953125 C3.246875 0.03628906 4.071875 0.05304688 4.921875 0.0703125 C5.76234375 0.07933594 6.6028125 0.08835937 7.46875 0.09765625 C9.53658104 0.12115433 11.60426495 0.15702342 13.671875 0.1953125 C13.79581136 5.78198214 13.88637255 11.36784533 13.9465332 16.95556641 C13.97162104 18.85479681 14.00569968 20.7539312 14.04907227 22.65283203 C14.1099783 25.38858771 14.13814153 28.1230632 14.16015625 30.859375 C14.18596268 31.70335846 14.2117691 32.54734192 14.23835754 33.41690063 C14.24032377 37.58399703 13.98593019 40.37066244 11.37963867 43.72412109 C8.11526613 46.70329149 6.02320002 47.0246723 1.671875 47.1953125 C2.14625 46.7621875 2.620625 46.3290625 3.109375 45.8828125 C6.55340555 42.16325951 5.98646091 37.15902159 6.20703125 32.37109375 C6.25000839 31.50969284 6.29298553 30.64829193 6.33726501 29.76078796 C6.47359673 27.00997406 6.60405573 24.25891716 6.734375 21.5078125 C6.8257852 19.64255913 6.9175774 17.77732445 7.00976562 15.91210938 C7.23490173 11.34004868 7.45477137 6.76776137 7.671875 2.1953125 C2.391875 2.1953125 -2.888125 2.1953125 -8.328125 2.1953125 C-4.70316658 0.38283329 -3.7329544 -0.05332792 0 0 Z "
     fill="#075292"
     transform="translate(87.328125,108.8046875)"
     id="path33" />
  <path
     d="M0 0 C0 0.99 0 1.98 0 3 C-1.13695313 3.14695312 -2.27390625 3.29390625 -3.4453125 3.4453125 C-18.12812836 5.50908514 -30.18581287 9.6686543 -42 19 C-42.68449219 19.50917969 -43.36898437 20.01835938 -44.07421875 20.54296875 C-52.85738853 27.53154196 -58.96613819 37.65226753 -63 48 C-64.32 48 -65.64 48 -67 48 C-64.80542589 33.94968068 -52.86073261 21.35673037 -42 13 C-31.39750598 5.80173813 -13.02764726 -4.34254909 0 0 Z "
     fill="#1EB5E9"
     transform="translate(102,22)"
     id="path34" />
  <path
     d="M0 0 C2.25726011 1.89121793 3.68646424 3.37292849 5 6 C5.0960207 7.65536064 5.13074554 9.31451436 5.1328125 10.97265625 C5.13474609 12.44508789 5.13474609 12.44508789 5.13671875 13.94726562 C5.13285156 14.97529297 5.12898438 16.00332031 5.125 17.0625 C5.12886719 18.09439453 5.13273437 19.12628906 5.13671875 20.18945312 C5.13542969 21.16978516 5.13414063 22.15011719 5.1328125 23.16015625 C5.13168457 24.06386963 5.13055664 24.96758301 5.12939453 25.89868164 C5 28 5 28 4 29 C2.48071962 29.07179964 0.95832518 29.08392007 -0.5625 29.0625 C-1.38878906 29.05347656 -2.21507813 29.04445313 -3.06640625 29.03515625 C-4.02353516 29.01775391 -4.02353516 29.01775391 -5 29 C-5 28.34 -5 27.68 -5 27 C-4.34 26.67 -3.68 26.34 -3 26 C-2.72353226 22.93781928 -2.47809329 19.8783422 -2.25 16.8125 C-2.16878906 15.94818359 -2.08757812 15.08386719 -2.00390625 14.19335938 C-1.71228331 9.9648268 -1.56485138 7.72367107 -3.796875 4.01171875 C-6.03003213 1.87061281 -6.03003213 1.87061281 -9 0 C-5.41563853 -1.19478716 -3.63093708 -0.96330984 0 0 Z "
     fill="#085292"
     transform="translate(96,41)"
     id="path36" />
  <path
     d="M0 0 C12.21 0 24.42 0 37 0 C36.67 5.94 36.34 11.88 36 18 C31.43213534 18.91357293 27.30084907 19.11609566 22.6875 19.0625 C21.94693359 19.05798828 21.20636719 19.05347656 20.44335938 19.04882812 C18.62887101 19.03712175 16.81442466 19.01918898 15 19 C15 18.67 15 18.34 15 18 C15.99902344 17.95101562 16.99804688 17.90203125 18.02734375 17.8515625 C19.31769531 17.77679688 20.60804687 17.70203125 21.9375 17.625 C23.86916016 17.52058594 23.86916016 17.52058594 25.83984375 17.4140625 C26.88269531 17.27742188 27.92554688 17.14078125 29 17 C31.24103151 12.51793698 30 7.01109879 30 2 C19.77 2 9.54 2 -1 2 C-0.67 1.34 -0.34 0.68 0 0 Z "
     fill="#0A5897"
     transform="translate(41,71)"
     id="path37" />
  <path
     d="M0 0 C2.77558767 0.98687562 4.10600113 1.62986268 5.8125 4 C5.8125 4.66 5.8125 5.32 5.8125 6 C4.43971907 6.89230761 3.06401987 7.78037421 1.67578125 8.6484375 C-1.40212028 10.88104532 -3.92686299 13.65175414 -6.55078125 16.390625 C-8.1875 18 -8.1875 18 -9.1875 18 C-10.08800509 6.6102782 -10.08800509 6.6102782 -8.0625 2.98828125 C-5.45348284 0.61706513 -3.48457765 0 0 0 Z "
     fill="#1EB2E7"
     transform="translate(87.1875,41)"
     id="path38" />
  <path
     d="M0 0 C0.9075 0.391875 1.815 0.78375 2.75 1.1875 C4.08157895 6.63486842 4.08157895 6.63486842 2.625 9.0625 C0.11737712 10.56707373 -1.37120803 10.6193188 -4.25 10.1875 C-6.0625 9 -6.0625 9 -7.25 7.1875 C-7.6875 4.6875 -7.6875 4.6875 -7.25 2.1875 C-4.72476191 -0.82336079 -3.85344516 -0.96336129 0 0 Z "
     fill="#050708"
     transform="translate(516.25,36.8125)"
     id="path39" />
  <path
     d="M0 0 C0.74617584 0.00141495 1.49235168 0.0028299 2.26113892 0.00428772 C4.62465568 0.00984751 6.98807477 0.02239236 9.3515625 0.03515625 C10.96223821 0.04017645 12.57291541 0.04473845 14.18359375 0.04882812 C18.11462049 0.05980374 22.04557498 0.07704029 25.9765625 0.09765625 C25.6465625 1.08765625 25.3165625 2.07765625 24.9765625 3.09765625 C5.6715625 2.60265625 5.6715625 2.60265625 -14.0234375 2.09765625 C-14.0234375 1.76765625 -14.0234375 1.43765625 -14.0234375 1.09765625 C-9.32140736 0.16818518 -4.77531515 -0.03458026 0 0 Z "
     fill="#075494"
     transform="translate(117.0234375,89.90234375)"
     id="path40" />
  <path
     d="M0 0 C1.78083984 -0.03867188 1.78083984 -0.03867188 3.59765625 -0.078125 C7.20585648 0.27636485 9.09334709 1.03489415 11.9375 3.25 C11.9375 3.91 11.9375 4.57 11.9375 5.25 C10.2875 5.91 8.6375 6.57 6.9375 7.25 C6.44765625 6.60546875 5.9578125 5.9609375 5.453125 5.296875 C2.04291423 2.52210723 -1.09334833 2.58199765 -5.3125 2.5 C-6.05757813 2.47035156 -6.80265625 2.44070312 -7.5703125 2.41015625 C-9.40046672 2.3397657 -11.23148769 2.29258168 -13.0625 2.25 C-13.0625 1.92 -13.0625 1.59 -13.0625 1.25 C-8.67515894 0.4194194 -4.46431916 0.05829361 0 0 Z "
     fill="#386F3E"
     transform="translate(133.0625,70.75)"
     id="path41" />
  <path
     d="M0 0 C0.33 0 0.66 0 1 0 C0.76435605 4.08449505 0.59037881 6.34214932 -2.1875 9.4375 C-5.41176773 11.22875985 -7.36804503 11.33785628 -11 11 C-10.09827532 9.82174642 -9.17798498 8.65768423 -8.25 7.5 C-7.73953125 6.8503125 -7.2290625 6.200625 -6.703125 5.53125 C-5 4 -5 4 -1 4 C-0.67 2.68 -0.34 1.36 0 0 Z "
     fill="#39713B"
     transform="translate(146,78)"
     id="path42" />
  <path
     d="M0 0 C6.50459835 0.81307479 12.66568498 1.98141057 17 7.1875 C17.66 8.115625 18.32 9.04375 19 10 C16.40422869 9.03585637 14.08872739 8.05668694 11.75 6.5625 C8.01638763 4.44112934 4.09197855 3.25701302 0 2 C0 1.34 0 0.68 0 0 Z "
     fill="#085291"
     transform="translate(127,24)"
     id="path43" />
  <path
     d="M0 0 C1.2065625 0.0309375 1.2065625 0.0309375 2.4375 0.0625 C2.7675 0.7225 3.0975 1.3825 3.4375 2.0625 C1.7875 2.3925 0.1375 2.7225 -1.5625 3.0625 C-1.8925 9.3325 -2.2225 15.6025 -2.5625 22.0625 C-2.8925 22.0625 -3.2225 22.0625 -3.5625 22.0625 C-3.59137814 18.58335059 -3.60925687 15.10423169 -3.625 11.625 C-3.63337891 10.63177734 -3.64175781 9.63855469 -3.65039062 8.61523438 C-3.65361328 7.67099609 -3.65683594 6.72675781 -3.66015625 5.75390625 C-3.66539307 4.87935791 -3.67062988 4.00480957 -3.67602539 3.10375977 C-3.50444536 0.01864008 -3.10895855 0.07582826 0 0 Z "
     fill="#0C5C9A"
     transform="translate(122.5625,107.9375)"
     id="path44" />
  <path
     d="M0 0 C0.66 0.33 1.32 0.66 2 1 C-0.31 3.31 -2.62 5.62 -5 8 C-5.33 6.68 -5.66 5.36 -6 4 C-4.02 2.68 -2.04 1.36 0 0 Z "
     fill="#1BA5DB"
     transform="translate(84,51)"
     id="path45" />
  <path
     d="M0 0 C2.76276177 0.52268466 5.3260876 1.10869587 8 2 C8 2.66 8 3.32 8 4 C5.69 4 3.38 4 1 4 C0.67 2.68 0.34 1.36 0 0 Z "
     fill="#1EADE2"
     transform="translate(127,26)"
     id="path46" />
  <text
     xml:space="preserve"
     style="font-weight:bold;font-size:58.6667px;line-height:1.4;font-family:Poppins;-inkscape-font-specification:'Poppins Bold';text-align:start;letter-spacing:-0.4px;writing-mode:lr-tb;direction:ltr;text-anchor:start;fill:#000000;stroke-width:3.77953;stroke-linecap:square;stroke-linejoin:bevel"
     x="193.54047"
     y="81.641541"
     id="text46"><tspan
       id="tspan46"
       x="193.54047"
       y="81.641541"
       style="font-style:normal;font-variant:normal;font-weight:600;font-stretch:normal;font-size:58.6667px;font-family:'Century Gothic';-inkscape-font-specification:'Century Gothic Semi-Bold';letter-spacing:-0.4px"
       sodipodi:role="line">Rumah Sakit</tspan></text>
  <text
     xml:space="preserve"
     style="font-style:normal;font-variant:normal;font-weight:600;font-stretch:normal;font-size:72px;line-height:1.4;font-family:'Century Gothic';-inkscape-font-specification:'Century Gothic Semi-Bold';text-align:start;letter-spacing:-1.6px;writing-mode:lr-tb;direction:ltr;text-anchor:start;fill:#000000;stroke-width:3.77953;stroke-linecap:square;stroke-linejoin:bevel"
     x="193.55859"
     y="149.91327"
     id="text47"><tspan
       sodipodi:role="line"
       id="tspan47"
       x="193.55859"
       y="149.91327"
       style="font-size:72px;letter-spacing:-1.6px">SAMSOE HIDAJAT</tspan></text>
</svg>
