<?xml version="1.0" encoding="UTF-8" standalone="no"?>
<svg
   version="1.1"
   width="220"
   height="220"
   id="svg46"
   sodipodi:docname="logogram-rssh.svg"
   inkscape:version="1.4.2 (ebf0e940, 2025-05-08)"
   xmlns:inkscape="http://www.inkscape.org/namespaces/inkscape"
   xmlns:sodipodi="http://sodipodi.sourceforge.net/DTD/sodipodi-0.dtd"
   xmlns="http://www.w3.org/2000/svg"
   xmlns:svg="http://www.w3.org/2000/svg">
  <defs
     id="defs46" />
  <sodipodi:namedview
     id="namedview46"
     pagecolor="#ffffff"
     bordercolor="#000000"
     borderopacity="0.25"
     inkscape:showpageshadow="2"
     inkscape:pageopacity="0.0"
     inkscape:pagecheckerboard="0"
     inkscape:deskcolor="#d1d1d1"
     showguides="true"
     inkscape:zoom="2.1842894"
     inkscape:cx="149.01872"
     inkscape:cy="105.98413"
     inkscape:window-width="1472"
     inkscape:window-height="894"
     inkscape:window-x="0"
     inkscape:window-y="34"
     inkscape:window-maximized="1"
     inkscape:current-layer="svg46" />
  <g
     id="g47"
     transform="translate(20.853649,19.449477)">
    <path
       d="m 102.69064,13.499986 c 2.68608,1.79072 3.62348,2.801455 4.57884,5.84259 0.46114,2.362221 0.54116,4.519214 0.53469,6.925965 -1.2e-4,1.41101 -1.2e-4,1.41101 -2.3e-4,2.850525 -0.005,1.007422 -0.0103,2.014845 -0.0156,3.052795 -0.001,1.037554 -0.003,2.075109 -0.004,3.144104 -0.006,3.31137 -0.0181,6.622672 -0.0309,9.934021 -0.005,2.246093 -0.01,4.492187 -0.0137,6.738281 -0.0113,5.50393 -0.028,11.007819 -0.0491,16.511719 0.95262,-0.0348 1.90523,-0.06961 2.88672,-0.105469 1.25426,-0.02707 2.50851,-0.05414 3.80078,-0.08203 1.24137,-0.0348 2.48273,-0.06961 3.76172,-0.105469 3.771,0.311138 5.55763,1.046731 8.55078,3.292968 2.08607,2.654997 1.99879,4.067505 1.9375,7.5 -1.10333,4.119083 -2.41148,5.239733 -5.9375,7.5 0.54269,0.170156 1.08539,0.340312 1.64453,0.515625 3.23464,1.095698 5.80278,1.983501 8.35547,4.296875 1.3713,2.99971 1.46681,4.919819 1,8.1875 -2.00109,3.521924 -3.32779,4.758744 -7.15625,6.132814 -4.06481,0.91706 -7.6212,1.06582 -11.78125,0.99219 -0.68385,-0.009 -1.3677,-0.0181 -2.07227,-0.0273 -1.66356,-0.0233 -3.32695,-0.0591 -4.99023,-0.0977 0.0157,0.84708 0.0314,1.69415 0.0476,2.5669 0.0513,3.16452 0.0888,6.32884 0.11718,9.49365 0.015,1.36563 0.0354,2.73121 0.0615,4.09668 0.0367,1.97081 0.0519,3.94198 0.0666,5.91308 0.0157,1.18352 0.0314,2.36704 0.0476,3.58643 -0.38196,3.74954 -1.39269,6.13644 -3.34057,9.34326 -3.95946,2.50919 -8.194891,3.0132 -12.812501,2.9375 -3.61687,-1.06378 -4.84212,-2.03663 -7.1875,-4.9375 -0.48102,-2.41718 -0.48102,-2.41718 -0.4541,-5.13574 3e-4,-1.02076 6e-4,-2.04151 9.1e-4,-3.0932 0.031,-1.64238 0.031,-1.64238 0.0626,-3.31793 0.006,-1.12634 0.0113,-2.25268 0.0172,-3.41315 0.0224,-3.59709 0.0726,-7.19319 0.12348,-10.78998 0.0201,-2.43879 0.0383,-4.87759 0.0547,-7.31641 0.0441,-5.9782 0.11102,-11.955828 0.1953,-17.933594 -1.485,-0.495 -1.485,-0.495 -3,-1 -0.02684,2.979226 -0.04676,5.958213 -0.0625,8.9375 -0.01257,1.27521 -0.01257,1.27521 -0.02539,2.57617 -0.0048,1.213334 -0.0048,1.213334 -0.0098,2.451174 -0.0079,1.1233 -0.0079,1.1233 -0.01587,2.26929 -0.07986,1.79255 -0.07986,1.79255 1.11356,2.76587 0.29314,5.60871 0.31415,11.22005 0.3501,16.83569 0.0165,1.89238 0.0438,3.7847 0.082,5.67676 0.0549,2.72925 0.0767,5.45704 0.0913,8.18677 0.0227,0.84085 0.0453,1.68169 0.0687,2.54802 -0.015,4.18644 -0.28804,6.92773 -2.93735,10.27156 -3.62339,3.38647 -6.293202,3.66998 -11.092285,3.7937 -1.421191,0.0561 -1.421191,0.0561 -2.871094,0.11328 -2.691371,-0.42578 -2.691371,-0.42578 -4.83517,-1.85376 -2.811462,-3.89567 -2.354531,-7.46505 -2.246826,-12.15014 0.0057,-0.92658 0.01132,-1.85315 0.01715,-2.80781 0.02237,-2.95522 0.07256,-5.90922 0.123474,-8.86407 0.02007,-2.00519 0.03832,-4.0104 0.05469,-6.01562 0.04407,-4.91193 0.113095,-9.82295 0.195311,-14.73438 -1.95293,-0.0213 -1.95293,-0.0213 -3.945312,-0.043 -1.726598,-0.0469 -3.453159,-0.0952 -5.179688,-0.14453 -1.283906,-0.009 -1.283906,-0.009 -2.59375,-0.0176 -6.138786,-0.21244 -9.036865,-1.29661 -13.28125,-5.79487 -1.091947,-2.826224 -0.835626,-5.107453 0,-8.000004 2.133647,-2.865183 2.828345,-3.715856 6,-5 2.236847,-0.292235 4.486377,-0.49545 6.738281,-0.628906 1.172161,-0.0742 2.344322,-0.148404 3.552002,-0.224854 0.894207,-0.04826 1.788413,-0.09652 2.709717,-0.14624 -1.003777,0.01571 -2.007554,0.03142 -3.041748,0.04761 -3.736572,0.05444 -7.473108,0.0888 -11.209961,0.117188 -1.614969,0.01505 -3.229897,0.0355 -4.844727,0.06152 -2.32603,0.03654 -4.651517,0.05344 -6.977783,0.06665 -1.076853,0.02323 -1.076853,0.02323 -2.175461,0.04692 -5.543103,0.0018 -8.684652,-1.343078 -12.62532,-5.15239 -1.600359,-3.111807 -1.090395,-4.877573 -0.125,-8.187498 1.510449,-3.020897 2.582384,-3.831966 5.726807,-5.097168 6.022876,-1.601963 12.337773,-1.147465 18.519287,-1.098145 1.380048,0.0037 2.7601,0.0066 4.140152,0.0086 3.611826,0.0076 7.223488,0.02721 10.835251,0.04941 3.693723,0.02055 7.387473,0.02961 11.081237,0.03967 7.232496,0.02135 14.464858,0.05543 21.697266,0.09763 -0.0111,-0.602773 -0.0222,-1.205545 -0.0336,-1.826584 -0.11068,-6.277788 -0.18606,-12.555298 -0.24101,-18.833816 -0.0251,-2.342563 -0.0593,-4.685047 -0.10254,-7.027344 -0.0607,-3.368605 -0.089,-6.736172 -0.11109,-10.105225 -0.0258,-1.046009 -0.0516,-2.092017 -0.0782,-3.169723 -0.003,-7.294681 -0.003,-7.294681 2.972,-11.175247 4.99009,-3.581419 9.56418,-3.513258 15.594441,-2.862061 z"
       fill="#348740"
       id="path1" />
    <path
       d="m 108.69064,21.499986 c 14.94151,1.572791 29.02298,11.288932 39,22 6.41141,7.958646 11.3055,16.479549 15,26 0.34031,0.871406 0.68062,1.742812 1.03125,2.640625 5.67483,17.970285 2.74243,39.013189 -5.28125,55.671879 -3.27244,6.18903 -7.06197,11.50171 -11.75,16.6875 -0.62648,0.7077 -1.25297,1.41539 -1.89844,2.14453 -11.60927,12.39112 -28.96796,20.65774 -45.957031,21.28906 -2.44389,0.0238 -4.8881,0.0244 -7.33203,0.004 -1.28286,-0.009 -2.56572,-0.018 -3.88745,-0.0273 C 65.602611,167.50875 47.197065,159.88681 31.487514,144.31653 19.22208,131.18489 11.417853,114.2883 11.628139,96.187486 c 0.0045,-0.740566 0.009,-1.481133 0.01367,-2.244141 0.01171,-1.814488 0.02964,-3.628934 0.04883,-5.443359 3.96,0 7.92,0 12,0 0.158555,1.509492 0.317109,3.018984 0.480469,4.574219 1.25546,11.157595 2.510696,21.265005 7.519531,31.425785 0.430547,0.93586 0.861094,1.87172 1.304688,2.83594 8.462258,17.06794 23.382266,27.19519 40.992187,33.30859 17.278935,3.99165 34.692656,-0.23206 49.703126,-9.14453 3.17706,-2.15444 6.1136,-4.4716 9,-7 0.60328,-0.52078 1.20656,-1.04156 1.82812,-1.57812 12.309,-11.42186 19.64007,-27.86204 20.39063,-44.550794 0.56127,-19.572984 -4.49507,-38.330189 -18.21875,-52.87109 -8.30279,-8.37303 -17.44899,-13.919881 -28,-19 0,-1.65 0,-3.3 0,-5 z"
       fill="#0f69a5"
       id="path2" />
    <path
       d="m 98.975799,87.296861 c 0.77871,-0.0057 1.557421,-0.0114 2.359731,-0.01727 1.63797,-0.0094 3.27596,-0.01596 4.91395,-0.01984 2.4996,-0.0097 4.99839,-0.04084 7.4978,-0.07227 1.597,-0.0065 3.19401,-0.01178 4.79102,-0.01563 1.11424,-0.01852 1.11424,-0.01852 2.25099,-0.03741 4.48874,0.01922 7.3517,0.568424 10.90135,3.365539 2.34169,3.512532 2.49624,4.864694 2,8.999996 -2.00109,3.521924 -3.32778,4.758744 -7.15625,6.132814 -4.06481,0.91706 -7.62119,1.06582 -11.78125,0.99219 -0.68384,-0.009 -1.36769,-0.0181 -2.07226,-0.0273 -1.66357,-0.0233 -3.32695,-0.0591 -4.99024,-0.0977 0.0157,0.84708 0.0314,1.69415 0.0476,2.5669 0.0513,3.16452 0.0888,6.32884 0.11719,9.49365 0.015,1.36563 0.0354,2.73121 0.0615,4.09668 0.0367,1.97081 0.0519,3.94198 0.0666,5.91308 0.0157,1.18352 0.0314,2.36704 0.0476,3.58643 -0.38196,3.74954 -1.3927,6.13644 -3.34058,9.34326 -3.95946,2.50919 -8.194891,3.0132 -12.812501,2.9375 -3.61686,-1.06378 -4.84212,-2.03663 -7.1875,-4.9375 -0.48102,-2.41717 -0.48102,-2.41717 -0.4541,-5.13574 3e-4,-1.02076 6e-4,-2.04151 9.2e-4,-3.0932 0.0207,-1.09492 0.0413,-2.18984 0.0626,-3.31793 0.006,-1.12634 0.0113,-2.25268 0.0172,-3.41315 0.0224,-3.59709 0.0726,-7.19319 0.12347,-10.78998 0.0201,-2.43879 0.0383,-4.87759 0.0547,-7.31641 0.04409,-5.97819 0.11103,-11.955818 0.1953,-17.933584 4.77553,-0.937539 9.43382,-1.175294 14.28516,-1.203125 z"
       fill="#1275af"
       id="path4" />
    <path
       d="m 102.69064,13.499986 c 2.68356,1.789038 3.6217,2.799522 4.57884,5.836853 0.46601,2.393512 0.5411,4.584902 0.53469,7.023499 -8e-5,0.960694 -1.6e-4,1.921388 -2.3e-4,2.911193 -0.005,1.029297 -0.0103,2.058593 -0.0156,3.11908 -0.001,1.05975 -0.003,2.119501 -0.004,3.211365 -0.006,3.382699 -0.0181,6.765331 -0.0309,10.14801 -0.005,2.29427 -0.01,4.588541 -0.0137,6.882812 -0.0113,5.622419 -0.028,11.244799 -0.0491,16.867188 -5.01609,1.01764 -9.786081,1.118564 -14.875001,1.0625 -0.78375,-0.0045 -1.5675,-0.009 -2.375,-0.01367 -1.9167,-0.01169 -3.83336,-0.02962 -5.75,-0.04883 -0.12683,-7.171439 -0.21436,-14.342588 -0.27466,-21.514893 -0.0251,-2.439563 -0.0593,-4.87905 -0.10254,-7.318359 -0.0607,-3.507594 -0.089,-7.014193 -0.11108,-10.522217 -0.0258,-1.089756 -0.0516,-2.179512 -0.0782,-3.302292 -0.003,-7.59314 -0.003,-7.59314 2.972,-11.507522 5.00537,-3.539601 9.57059,-3.485226 15.594481,-2.834717 z"
       fill="#1994cb"
       id="path8" />
    <path
       d="m 74.003139,106.43749 c 0.835957,0.005 1.671914,0.009 2.533203,0.0137 2.051463,0.0117 4.10289,0.0297 6.154297,0.0488 0.12394,5.58667 0.2145,11.17253 0.27466,16.76025 0.0251,1.89923 0.0592,3.79837 0.10254,5.69727 0.0609,2.73575 0.0891,5.47023 0.11108,8.20654 0.0258,0.84399 0.0516,1.68797 0.0782,2.55753 0.002,4.19757 -0.252,6.94538 -2.909498,10.29941 -3.625609,3.38274 -6.29591,3.66779 -11.094482,3.7915 -1.421191,0.0561 -1.421191,0.0561 -2.871094,0.11328 -2.691406,-0.42578 -2.691406,-0.42578 -4.835205,-1.85376 -2.811462,-3.89567 -2.354531,-7.46505 -2.246826,-12.15015 0.0057,-0.92657 0.01132,-1.85314 0.01715,-2.80779 0.02237,-2.95523 0.07256,-5.90923 0.123474,-8.86408 0.02007,-2.00519 0.03832,-4.0104 0.05469,-6.01562 0.04407,-4.91193 0.113095,-9.82295 0.195311,-14.73438 4.77093,-1.23403 9.424694,-1.11265 14.3125,-1.0625 z"
       fill="#188dc5"
       id="path13" />
    <path
       d="m 31.467983,68.304673 c 0.811349,0.0028 1.622698,0.0057 2.458633,0.0086 2.567331,0.01111 5.1343,0.0362 7.701523,0.06174 1.750646,0.01004 3.501298,0.01917 5.251953,0.02734 4.270431,0.02021 8.540089,0.05937 12.810547,0.09763 -0.33,5.939999 -0.66,11.88 -1,17.999999 -4.367857,0.873572 -8.337113,1.176418 -12.75,1.203125 -0.735732,0.0057 -1.471465,0.0114 -2.229492,0.01727 -1.54979,0.0094 -3.0996,0.01597 -4.649414,0.01984 -2.363635,0.0097 -4.726411,0.0408 -7.089844,0.07227 -1.510411,0.0065 -3.020829,0.01178 -4.53125,0.01563 -0.702217,0.01235 -1.404433,0.02469 -2.127929,0.03741 -5.469745,-0.02472 -8.608918,-1.419492 -12.497071,-5.178039 -1.600359,-3.11181 -1.090395,-4.877575 -0.125,-8.1875 1.606579,-3.213159 2.652822,-3.875868 6.068604,-5.097168 4.24967,-1.133972 8.334162,-1.156553 12.70874,-1.09815 z"
       fill="#188fc6"
       id="path18" />
    <path
       d="m 83.690639,19.499986 c 0,1.65 0,3.3 0,5 -1.61455,0.41959 -1.61455,0.41959 -3.261719,0.847656 -14.435858,3.898263 -26.08918,9.352192 -36.738281,20.152344 -0.623906,0.613594 -1.247813,1.227187 -1.890625,1.859375 -5.600883,5.903633 -9.266071,13.033009 -13.109375,20.140625 -3.96,0 -7.92,0 -12,0 3.076786,-15.383929 15.545283,-28.580989 28.1875,-37.164062 10.026874,-6.249637 26.971463,-14.78295 38.8125,-10.835938 z"
       fill="#085492"
       id="path22" />
    <path
       d="m 80.003139,40.437486 c 2.60825,3.187865 2.81526,4.982011 2.82031,9.035156 0.002,1.472432 0.002,1.472432 0.004,2.97461 -0.004,1.028027 -0.008,2.056054 -0.0117,3.115234 0.006,1.547842 0.006,1.547842 0.0117,3.126953 -0.001,0.980332 -0.003,1.960664 -0.004,2.970703 -10e-4,0.903714 -0.002,1.807427 -0.003,2.738526 -0.12981,2.101318 -0.12981,2.101318 -1.12981,3.101318 -1.634729,0.087 -3.27314,0.107011 -4.910156,0.09766 -0.989356,-0.0032 -1.978711,-0.0064 -2.998047,-0.0098 -1.040918,-0.0084 -2.081836,-0.01676 -3.154297,-0.02539 -1.044785,-0.0045 -2.08957,-0.009 -3.166016,-0.01367 -2.590551,-0.01183 -5.18099,-0.02831 -7.771484,-0.04883 -0.174635,-3.895265 -0.280965,-7.789522 -0.375,-11.6875 -0.05027,-1.102793 -0.100547,-2.205586 -0.152344,-3.341797 -0.144637,-7.979178 -0.144637,-7.979178 1.78418,-10.825195 5.445916,-4.691474 13.328772,-6.006185 19.055664,-1.207978 z"
       fill="#1683bc"
       id="path27" />
    <path
       d="m 15.690639,88.499986 c 2.64,0 5.28,0 8,0 0.0647,0.62866 0.12939,1.257319 0.196045,1.905029 1.847364,17.580175 1.847364,17.580175 7.803955,34.094975 0.430547,0.93586 0.861094,1.87172 1.304687,2.83594 8.441105,17.02528 23.118666,26.80855 40.523438,33.20312 2.045922,0.68841 4.10719,1.33104 6.171875,1.96094 0,0.33 0,0.66 0,1 -20.653374,-1.61987 -36.98983,-12.2742 -50.191406,-27.70703 -8.991074,-11.39905 -14.051849,-25.57555 -13.871094,-40.105474 0.0045,-0.692871 0.009,-1.385742 0.01367,-2.099609 0.0117,-1.696002 0.02963,-3.391958 0.04883,-5.087891 z"
       fill="#075291"
       id="path29" />
    <path
       d="m 93.690639,13.499986 c 8.108911,-0.623762 8.108911,-0.623762 11.500001,1.75 2.40844,3.612661 2.62478,6.833054 2.61352,11.110352 -7e-5,0.960694 -1.5e-4,1.921388 -2.2e-4,2.911193 -0.005,1.029297 -0.0103,2.058593 -0.0156,3.11908 -0.001,1.05975 -0.003,2.119501 -0.004,3.211365 -0.006,3.382699 -0.0182,6.765331 -0.0309,10.14801 -0.005,2.29427 -0.01,4.588541 -0.0137,6.882812 -0.0113,5.622419 -0.028,11.244799 -0.0491,16.867188 -3.46922,0.627412 -6.77796,1.124785 -10.304691,1.097656 -1.12148,-0.0048 -1.12148,-0.0048 -2.26562,-0.0098 -0.76055,-0.0084 -1.5211,-0.01676 -2.30469,-0.02539 -0.78375,-0.0045 -1.5675,-0.009 -2.375,-0.01367 -1.9167,-0.01165 -3.83336,-0.02959 -5.75,-0.0488 0.33,-0.99 0.66,-1.98 1,-3 0.33,0.33 0.66,0.66 1,1 2.35314,0.07272 4.70834,0.08371 7.0625,0.0625 1.29035,-0.009 2.5807,-0.01805 3.91016,-0.02734 1.49853,-0.01741 1.49853,-0.01741 3.027341,-0.03516 0.009,-7.048085 -0.0281,-14.094833 -0.0977,-21.142578 -0.0182,-2.397729 -0.0257,-4.795564 -0.0225,-7.19336 0.003,-3.44614 -0.0324,-6.890098 -0.0752,-10.335937 0.009,-1.073044 0.0182,-2.146088 0.0276,-3.251648 0.10289,-5.221213 0.10289,-5.221213 -2.221351,-9.629822 -1.81206,-1.251077 -1.81206,-1.251077 -4.61085,-2.446651 0,-0.33 0,-0.66 0,-1 z"
       fill="#095693"
       id="path32" />
    <path
       d="m 69.018764,106.30468 c 0.799219,0.006 1.598438,0.0129 2.421875,0.0195 0.825,0.0168 1.65,0.0335 2.5,0.0508 0.840469,0.009 1.680937,0.0181 2.546875,0.0273 2.067831,0.0235 4.135515,0.0594 6.203125,0.0977 0.12394,5.58667 0.2145,11.17253 0.27466,16.76026 0.0251,1.89923 0.0592,3.79836 0.10254,5.69726 0.0609,2.73576 0.0891,5.47023 0.11108,8.20654 0.0258,0.84399 0.0516,1.68797 0.0782,2.55753 0.002,4.1671 -0.25243,6.95376 -2.858718,10.30722 -3.264373,2.97917 -5.356439,3.30055 -9.707764,3.47119 0.474375,-0.43312 0.94875,-0.86625 1.4375,-1.3125 3.444031,-3.71955 2.877086,-8.72379 3.097656,-13.51172 0.04298,-0.8614 0.08595,-1.7228 0.130234,-2.6103 0.136332,-2.75082 0.266791,-5.50187 0.39711,-8.25298 0.09141,-1.86525 0.183202,-3.73049 0.275391,-5.5957 0.225136,-4.57206 0.445005,-9.14435 0.662109,-13.7168 -5.28,0 -10.56,0 -16,0 3.62496,-1.81248 4.595173,-2.24864 8.328127,-2.19531 z"
       fill="#075292"
       id="path33" />
    <path
       d="m 83.690639,19.499986 c 0,0.99 0,1.98 0,3 -1.13695,0.146953 -2.273906,0.293906 -3.445313,0.445312 -14.682815,2.063773 -26.7405,6.223342 -38.554687,15.554688 -0.684492,0.50918 -1.368984,1.018359 -2.074219,1.542969 -8.78317,6.988573 -14.891919,17.109299 -18.925781,27.457031 -1.32,0 -2.64,0 -4,0 2.194574,-14.050319 14.139267,-26.64327 25,-35 10.602494,-7.198262 28.972353,-17.342549 42,-13 z"
       fill="#1eb5e9"
       id="path34" />
    <path
       d="m 77.690639,38.499986 c 2.25726,1.891218 3.686464,3.372928 5,6 0.096,1.655361 0.13075,3.314514 0.13281,4.972656 0.002,1.472432 0.002,1.472432 0.004,2.97461 -0.004,1.028027 -0.008,2.056054 -0.0117,3.115234 0.004,1.031895 0.008,2.063789 0.0117,3.126953 -0.001,0.980332 -0.003,1.960664 -0.004,2.970703 -10e-4,0.903714 -0.002,1.807427 -0.003,2.738526 -0.12981,2.101318 -0.12981,2.101318 -1.12981,3.101318 -1.51928,0.0718 -3.041675,0.08392 -4.5625,0.0625 -0.826289,-0.009 -1.652578,-0.01805 -2.503906,-0.02734 -0.957129,-0.01741 -0.957129,-0.01741 -1.933594,-0.03516 0,-0.66 0,-1.32 0,-2 0.66,-0.33 1.32,-0.66 2,-1 0.276468,-3.062181 0.521907,-6.121658 0.75,-9.1875 0.08121,-0.864316 0.162422,-1.728633 0.246094,-2.619141 0.291623,-4.228532 0.439055,-6.469688 -1.792969,-10.18164 -2.233157,-2.141106 -2.233157,-2.141106 -5.203125,-4.011719 3.584361,-1.194787 5.369063,-0.96331 9,0 z"
       fill="#085292"
       id="path36" />
    <path
       d="m 22.690639,68.499986 c 12.21,0 24.42,0 37,0 -0.33,5.94 -0.66,11.88 -1,18 -4.567865,0.913573 -8.699151,1.116096 -13.3125,1.0625 -0.740566,-0.0045 -1.481133,-0.009 -2.244141,-0.01367 -1.814488,-0.01171 -3.628934,-0.02964 -5.443359,-0.04883 0,-0.33 0,-0.66 0,-1 0.999023,-0.04898 1.998047,-0.09797 3.027344,-0.148438 1.290351,-0.07477 2.580703,-0.149531 3.910156,-0.226562 1.93166,-0.104414 1.93166,-0.104414 3.902344,-0.210938 1.042851,-0.13664 2.085703,-0.273281 3.160156,-0.414062 2.241032,-4.482063 1,-9.988901 1,-15 -10.23,0 -20.46,0 -31,0 0.33,-0.66 0.66,-1.32 1,-2 z"
       fill="#0a5897"
       id="path37" />
    <path
       d="m 68.878139,38.499986 c 2.775588,0.986876 4.106001,1.629863 5.8125,4 0,0.66 0,1.32 0,2 -1.372781,0.892308 -2.74848,1.780374 -4.136719,2.648437 -3.077901,2.232608 -5.602644,5.003317 -8.226562,7.742188 -1.636719,1.609375 -1.636719,1.609375 -2.636719,1.609375 -0.900505,-11.389722 -0.900505,-11.389722 1.125,-15.011719 2.609017,-2.371216 4.577922,-2.988281 8.0625,-2.988281 z"
       fill="#1eb2e7"
       id="path38" />
    <path
       d="m 98.714079,87.40233 c 0.74618,0.0014 1.492351,0.0028 2.261141,0.0043 2.36352,0.0056 4.72693,0.0181 7.09042,0.03087 1.61068,0.005 3.22135,0.0096 4.83203,0.01367 3.93103,0.01098 7.86198,0.02821 11.79297,0.04883 -0.33,0.99 -0.66,1.98 -1,3 -19.305,-0.495 -19.305,-0.495 -39.000001,-1 0,-0.33 0,-0.66 0,-1 4.70203,-0.929471 9.24812,-1.132236 14.02344,-1.097656 z"
       fill="#075494"
       id="path40" />
    <path
       d="m 114.75314,68.249986 c 1.78084,-0.03867 1.78084,-0.03867 3.59766,-0.07813 3.6082,0.35449 5.49569,1.113019 8.33984,3.328125 0,0.66 0,1.32 0,2 -1.65,0.66 -3.3,1.32 -5,2 -0.48984,-0.644531 -0.97969,-1.289063 -1.48438,-1.953125 -3.41021,-2.774763 -6.54647,-2.714872 -10.76562,-2.79687 -0.74508,-0.02965 -1.49016,-0.0593 -2.25781,-0.08984 -1.83016,-0.07039 -3.66118,-0.117578 -5.49219,-0.16016 0,-0.33 0,-0.66 0,-1 4.38734,-0.830581 8.59818,-1.191706 13.0625,-1.25 z"
       fill="#386f3e"
       id="path41" />
    <path
       d="m 127.69064,75.499986 c 0.33,0 0.66,0 1,0 -0.23564,4.084495 -0.40962,6.342149 -3.1875,9.4375 -3.22427,1.79126 -5.18055,1.900356 -8.8125,1.5625 0.90172,-1.178254 1.82201,-2.342316 2.75,-3.5 0.51047,-0.649688 1.02094,-1.299375 1.54687,-1.96875 1.70313,-1.53125 1.70313,-1.53125 5.70313,-1.53125 0.33,-1.32 0.66,-2.64 1,-4 z"
       fill="#39713b"
       id="path42" />
    <path
       d="m 108.69064,21.499986 c 6.5046,0.813075 12.66568,1.981411 17,7.1875 0.66,0.928125 1.32,1.85625 2,2.8125 -2.59577,-0.964144 -4.91127,-1.943313 -7.25,-3.4375 -3.73361,-2.121371 -7.65802,-3.305487 -11.75,-4.5625 0,-0.66 0,-1.32 0,-2 z"
       fill="#085291"
       id="path43" />
    <path
       d="m 104.25314,105.43749 c 1.20656,0.0309 1.20656,0.0309 2.4375,0.0625 0.33,0.66 0.66,1.32 1,2 -1.65,0.33 -3.3,0.66 -5,1 -0.33,6.27 -0.66,12.54 -1,19 -0.33,0 -0.66,0 -1,0 -0.0289,-3.47915 -0.0468,-6.95827 -0.0625,-10.4375 -0.008,-0.99322 -0.0168,-1.98645 -0.0254,-3.00977 -0.003,-0.94423 -0.006,-1.88847 -0.01,-2.86132 -0.005,-0.87455 -0.0105,-1.7491 -0.0159,-2.65015 0.17158,-3.08512 0.56707,-3.02793 3.67603,-3.10376 z"
       fill="#0c5c9a"
       id="path44" />
    <path
       d="m 65.690639,48.499986 c 0.66,0.33 1.32,0.66 2,1 -2.31,2.31 -4.62,4.62 -7,7 -0.33,-1.32 -0.66,-2.64 -1,-4 1.98,-1.32 3.96,-2.64 6,-4 z"
       fill="#1ba5db"
       id="path45" />
    <path
       d="m 108.69064,23.499986 c 2.76276,0.522685 5.32609,1.108696 8,2 0,0.66 0,1.32 0,2 -2.31,0 -4.62,0 -7,0 -0.33,-1.32 -0.66,-2.64 -1,-4 z"
       fill="#1eade2"
       id="path46" />
  </g>
</svg>
